<?xml version="1.0" encoding="UTF-8"?>
<svg id="_레이어_2" data-name="레이어 2" xmlns="http://www.w3.org/2000/svg" viewBox="0 0 83.5 82.9">
  <defs>
    <style>
      .cls-1 {
        fill: #f3f4f6;
        stroke: #0a1478;
        stroke-linecap: round;
        stroke-linejoin: round;
        stroke-width: 1.3px;
      }
    </style>
  </defs>
  <g id="Layer_1" data-name="Layer 1">
    <g>
      <path class="cls-1" d="M82.08,56.31c-1.01,1.03-2.62,1.1-3.59,.15-5.53-5.41-13.99-2.66-22.94,.25-9.51,3.1-20.3,6.6-27.9-.83-7.61-7.44-4.34-18.3-1.46-27.88,2.71-9.01,5.27-17.53-.26-22.94-.97-.95-.94-2.56,.07-3.6s2.62-1.1,3.59-.15c7.61,7.44,4.34,18.3,1.46,27.88-2.71,9.01-5.27,17.53,.26,22.94,5.53,5.41,13.99,2.66,22.94-.25,9.51-3.1,20.29-6.6,27.9,.83,.97,.95,.94,2.56-.07,3.6Z"/>
      <path class="cls-1" d="M57.52,81.43c-1.01,1.03-2.62,1.1-3.59,.15-7.61-7.44-4.34-18.3-1.46-27.88,2.71-9.01,5.27-17.53-.26-22.94-5.53-5.41-13.99-2.66-22.94,.25-9.51,3.1-20.3,6.6-27.9-.83-.97-.95-.94-2.56,.07-3.6,1.01-1.03,2.62-1.1,3.59-.15,5.53,5.41,13.99,2.66,22.94-.25,9.51-3.1,20.29-6.6,27.9,.83,7.61,7.44,4.34,18.3,1.46,27.88-2.71,9.01-5.27,17.53,.26,22.94,.97,.95,.94,2.56-.07,3.6Z"/>
      <line class="cls-1" x1="28.13" y1="45.44" x2="42.01" y2="31.24"/>
      <line class="cls-1" x1="37.78" y1="54.87" x2="51.67" y2="40.67"/>
      <line class="cls-1" x1="31.3" y1="52.14" x2="50.28" y2="32.73"/>
      <line class="cls-1" x1="29.09" y1="15.76" x2="19.59" y2="25.47"/>
      <line class="cls-1" x1="28.24" y1="8.45" x2="11.67" y2="25.41"/>
      <line class="cls-1" x1="67.72" y1="53.54" x2="58.22" y2="63.25"/>
      <line class="cls-1" x1="75.04" y1="54.21" x2="58.46" y2="71.17"/>
    </g>
  </g>
</svg>