<?xml version="1.0" encoding="UTF-8"?>
<svg id="_레이어_2" data-name="레이어 2" xmlns="http://www.w3.org/2000/svg" viewBox="0 0 79.45 85.22">
  <defs>
    <style>
      .cls-1 {
        fill: none;
      }

      .cls-1, .cls-2 {
        stroke: #0a1478;
        stroke-linecap: round;
        stroke-linejoin: round;
        stroke-width: 1.7px;
      }

      .cls-2 {
        fill: #f3f4f6;
      }
    </style>
  </defs>
  <g id="Layer_1" data-name="Layer 1">
    <g>
      <path class="cls-1" d="M6.47,3.19H.85V30.01c0,8.63,7,15.63,15.63,15.63h3.62"/>
      <path class="cls-1" d="M33.74,3.19h5.62V30.01c0,8.63-7,15.63-15.63,15.63h-3.62v23.29c0,8.53,6.91,15.44,15.44,15.44h0c8.53,0,15.44-6.91,15.44-15.44V35.11c0-5.56,4.5-10.06,10.06-10.06h0c5.56,0,10.06,4.5,10.06,10.06v27.76"/>
      <circle class="cls-1" cx="71.11" cy="70.94" r="7.49" transform="translate(-10.3 129.76) rotate(-80.78)"/>
      <path class="cls-1" d="M74.19,70.94c0,1.71-1.38,3.09-3.09,3.09s-3.09-1.38-3.09-3.09,1.38-3.09,3.09-3.09,3.09,1.38,3.09,3.09Z"/>
      <path class="cls-2" d="M9.88,5.25H5.48c-1.21,0-2.2-.98-2.2-2.2h0c0-1.21,.98-2.2,2.2-2.2h4.4c1.21,0,2.2,.98,2.2,2.2h0c0,1.21-.98,2.2-2.2,2.2Z"/>
      <path class="cls-2" d="M34.63,5.25h-4.4c-1.21,0-2.2-.98-2.2-2.2h0c0-1.21,.98-2.2,2.2-2.2h4.4c1.21,0,2.2,.98,2.2,2.2h0c0,1.21-.98,2.2-2.2,2.2Z"/>
    </g>
  </g>
</svg>