<?xml version="1.0" encoding="UTF-8"?>
<svg id="_레이어_2" data-name="레이어 2" xmlns="http://www.w3.org/2000/svg" viewBox="0 0 79.14 65.58">
  <defs>
    <style>
      .cls-1 {
        fill: none;
      }

      .cls-1, .cls-2 {
        stroke: #0a1478;
        stroke-linejoin: round;
        stroke-width: 1.3px;
      }

      .cls-2 {
        fill: #f3f4f6;
      }
    </style>
  </defs>
  <g id="Layer_1" data-name="Layer 1">
    <g>
      <path class="cls-1" d="M51.23,.65c-6.42-.1-11.66,4.34-11.66,9.84,0-5.5-5.24-9.94-11.66-9.84-6.3,.1-11.23,4.75-11.23,10.17h0c0,6.83,3.31,13.36,9.13,18l13.75,10.97,13.75-10.97c5.82-4.64,9.13-11.17,9.13-18h0c0-5.42-4.93-10.07-11.23-10.17Z"/>
      <polygon class="cls-1" points="46.96 18.57 42.39 18.57 42.39 14 36.75 14 36.75 18.57 32.18 18.57 32.18 24.21 36.75 24.21 36.75 28.79 42.39 28.79 42.39 24.21 46.96 24.21 46.96 18.57"/>
      <g>
        <path class="cls-2" d="M17.31,56.32l.09-4.16-13.37-10.91c-1.33-1.09-2.14-2.69-2.23-4.4L.65,15.4c-.08-1.48,1.09-2.74,2.57-2.77h0c1.32-.02,2.46,.94,2.65,2.24l3.08,20.86,3.51,3.51,2.28-6.26,5.15,2.64c1.68,.86,2.93,2.38,3.45,4.19l1.56,5.41,2.16,10.49"/>
        <path class="cls-2" d="M19.64,35.5l-4.89-2.51-4.43-5.19c-.63-.74-1.69-.95-2.55-.5h0c-.94,.49-1.37,1.6-1,2.6l2.19,5.85,5.22,5.22"/>
        <rect class="cls-1" x="14.89" y="58.51" width="14.59" height="6.42"/>
      </g>
      <g>
        <path class="cls-2" d="M61.83,56.32l-.09-4.16,13.37-10.91c1.33-1.09,2.14-2.69,2.23-4.4l1.14-21.44c.08-1.48-1.09-2.74-2.57-2.77h0c-1.32-.02-2.46,.94-2.65,2.24l-3.08,20.86-3.51,3.51-2.28-6.26-5.15,2.64c-1.68,.86-2.93,2.38-3.45,4.19l-1.56,5.41-2.16,10.49"/>
        <path class="cls-2" d="M59.5,35.5l4.89-2.51,4.43-5.19c.63-.74,1.69-.95,2.55-.5h0c.94,.49,1.37,1.6,1,2.6l-2.19,5.85-5.22,5.22"/>
        <rect class="cls-1" x="49.66" y="58.51" width="14.59" height="6.42" transform="translate(113.91 123.44) rotate(-180)"/>
      </g>
    </g>
  </g>
</svg>