<?xml version="1.0" encoding="UTF-8"?>
<svg id="_레이어_2" data-name="레이어 2" xmlns="http://www.w3.org/2000/svg" xmlns:xlink="http://www.w3.org/1999/xlink" viewBox="0 0 52.65 55">
  <defs>
    <style>
      .cls-1 {
        fill: #c14343;
      }

      .cls-1, .cls-2, .cls-3 {
        stroke: #0a1478;
      }

      .cls-1, .cls-3 {
        stroke-miterlimit: 10;
      }

      .cls-2 {
        stroke-linecap: round;
        stroke-linejoin: round;
      }

      .cls-2, .cls-3 {
        fill: none;
      }

      .cls-4 {
        clip-path: url(#clippath);
      }
    </style>
    <clipPath id="clippath">
      <path class="cls-3" d="M44.2,32.65c0,12.07-9.78,21.85-21.85,21.85S.5,44.72,.5,32.65,10.28,10.8,22.35,10.8s21.85,9.78,21.85,21.85Z"/>
    </clipPath>
  </defs>
  <g id="Layer_1" data-name="Layer 1">
    <g>
      <path class="cls-2" d="M44.2,32.65c0,12.07-9.78,21.85-21.85,21.85S.5,44.72,.5,32.65,10.28,10.8,22.35,10.8s21.85,9.78,21.85,21.85Z"/>
      <path class="cls-2" d="M36.75,32.65c0,7.95-6.45,14.4-14.4,14.4s-14.4-6.45-14.4-14.4,6.45-14.4,14.4-14.4,14.4,6.45,14.4,14.4Z"/>
      <path class="cls-2" d="M29.8,32.65c0,4.11-3.33,7.45-7.45,7.45s-7.45-3.33-7.45-7.45,3.33-7.45,7.45-7.45,7.45,3.33,7.45,7.45Z"/>
      <line class="cls-2" x1="22.35" y1="32.65" x2="46.16" y2="7.17"/>
      <polyline class="cls-2" points="38.24 16.26 44.2 16.26 52.15 7.32 45.69 7.82"/>
      <polyline class="cls-2" points="37.71 14.9 37.36 8.95 45.83 .5 45.71 6.97"/>
      <g>
        <g class="cls-4">
          <g>
            <path class="cls-1" d="M46.87,32.53c0,.54-.44,.97-.97,.97s-.97-.44-.97-.97,.43-.97,.97-.97,.97,.43,.97,.97Z"/>
            <path class="cls-1" d="M46.87,38.81c0,.54-.44,.97-.97,.97s-.97-.44-.97-.97,.43-.97,.97-.97,.97,.44,.97,.97Z"/>
            <g>
              <path class="cls-1" d="M1.53,42.25c0,.54-.44,.97-.97,.97s-.97-.44-.97-.97,.44-.97,.97-.97,.97,.44,.97,.97Z"/>
              <path class="cls-1" d="M44.22,42.25c0,.54-.44,.97-.97,.97s-.97-.44-.97-.97,.44-.97,.97-.97,.97,.44,.97,.97Z"/>
            </g>
            <g>
              <path class="cls-1" d="M4.18,45.08c0,.54-.43,.97-.97,.97s-.97-.43-.97-.97,.44-.97,.97-.97,.97,.43,.97,.97Z"/>
              <path class="cls-1" d="M46.87,45.08c0,.54-.44,.97-.97,.97s-.97-.43-.97-.97,.43-.97,.97-.97,.97,.43,.97,.97Z"/>
            </g>
            <g>
              <path class="cls-1" d="M1.53,48.53c0,.54-.44,.97-.97,.97s-.97-.44-.97-.97,.44-.97,.97-.97,.97,.43,.97,.97Z"/>
              <path class="cls-1" d="M44.22,48.53c0,.54-.44,.97-.97,.97s-.97-.44-.97-.97,.44-.97,.97-.97,.97,.43,.97,.97Z"/>
            </g>
            <g>
              <path class="cls-1" d="M4.18,51.36c0,.54-.43,.97-.97,.97s-.97-.44-.97-.97,.44-.97,.97-.97,.97,.44,.97,.97Z"/>
              <path class="cls-1" d="M10.28,51.36c0,.54-.44,.97-.97,.97s-.97-.44-.97-.97,.43-.97,.97-.97,.97,.44,.97,.97Z"/>
              <path class="cls-1" d="M40.78,51.36c0,.54-.44,.97-.97,.97s-.97-.44-.97-.97,.44-.97,.97-.97,.97,.44,.97,.97Z"/>
              <path class="cls-1" d="M46.87,51.36c0,.54-.44,.97-.97,.97s-.97-.44-.97-.97,.43-.97,.97-.97,.97,.44,.97,.97Z"/>
            </g>
            <g>
              <path class="cls-1" d="M1.53,54.81c0,.54-.44,.97-.97,.97s-.97-.43-.97-.97,.44-.97,.97-.97,.97,.43,.97,.97Z"/>
              <path class="cls-1" d="M7.63,54.81c0,.54-.44,.97-.97,.97s-.97-.43-.97-.97,.44-.97,.97-.97,.97,.43,.97,.97Z"/>
              <path class="cls-1" d="M13.73,54.81c0,.54-.43,.97-.97,.97s-.97-.43-.97-.97,.43-.97,.97-.97,.97,.43,.97,.97Z"/>
              <path class="cls-1" d="M32.02,54.81c0,.54-.44,.97-.97,.97s-.97-.43-.97-.97,.44-.97,.97-.97,.97,.43,.97,.97Z"/>
              <path class="cls-1" d="M38.12,54.81c0,.54-.44,.97-.97,.97s-.97-.43-.97-.97,.44-.97,.97-.97,.97,.43,.97,.97Z"/>
              <path class="cls-1" d="M44.22,54.81c0,.54-.44,.97-.97,.97s-.97-.43-.97-.97,.44-.97,.97-.97,.97,.43,.97,.97Z"/>
            </g>
          </g>
        </g>
        <path class="cls-3" d="M44.2,32.65c0,12.07-9.78,21.85-21.85,21.85S.5,44.72,.5,32.65,10.28,10.8,22.35,10.8s21.85,9.78,21.85,21.85Z"/>
      </g>
    </g>
  </g>
</svg>