<?xml version="1.0" encoding="UTF-8"?>
<svg id="Layer_2" data-name="Layer 2" xmlns="http://www.w3.org/2000/svg" viewBox="0 0 324.25 53.71">
  <defs>
    <style>
      .cls-1 {
        fill: #9ad3b7;
      }

      .cls-2 {
        fill: #808285;
      }

      .cls-3 {
        fill: #bcbec0;
      }

      .cls-4 {
        fill: #39bb9d;
      }
    </style>
  </defs>
  <g id="Layer_1-2" data-name="Layer 1">
    <g>
      <g>
        <path class="cls-4" d="M53.38,26.59h-14.77s0,.07,0,.11c0,6.58-5.34,11.91-11.92,11.91s-11.92-5.33-11.92-11.91,5.33-11.93,11.92-11.93c.03,0,.07,0,.1,.01V0s-.07,0-.1,0C11.95,0,0,11.95,0,26.7s11.95,26.69,26.69,26.69,26.69-11.95,26.69-26.69c0-.04,0-.07,0-.11Z"/>
        <g>
          <path class="cls-4" d="M34.49,1.17l-1.74-.47-3.83,14.29c.6,.11,1.16,.27,1.74,.47l3.83-14.29Z"/>
          <path class="cls-4" d="M42.74,5.41l-1.47-1.03-8.48,12.09c.52,.31,1.02,.65,1.47,1.03l8.47-12.09Z"/>
          <path class="cls-4" d="M49.05,12.21l-1.03-1.48-12.07,8.44c.38,.48,.72,.97,1.02,1.49l12.08-8.45Z"/>
          <path class="cls-4" d="M52.65,20.76l-.46-1.75-14.22,3.8c.19,.56,.35,1.15,.46,1.75l14.22-3.81Z"/>
        </g>
        <path class="cls-1" d="M26.69,14.77s.07,0,.1,.01V0s-.07,0-.1,0C11.95,0,0,11.95,0,26.7H14.77c0-6.59,5.33-11.93,11.92-11.93Z"/>
        <path class="cls-1" d="M53.38,26.59h-14.77s0,.07,0,.11c0,6.58-5.34,11.91-11.92,11.91v14.77c14.74,0,26.69-11.95,26.69-26.69,0-.04,0-.07,0-.11Z"/>
      </g>
      <g>
        <path class="cls-1" d="M81.29,8.59c-.59,1.78-1.46,3.52-2.62,5.22-1.16,1.7-2.52,3.3-4.09,4.81-1.57,1.51-3.29,2.9-5.16,4.18-1.87,1.28-3.82,2.37-5.83,3.29l-1.02-1.33c1.43-.77,2.85-1.7,4.25-2.79s2.72-2.26,3.94-3.51c1.22-1.25,2.29-2.56,3.23-3.92,.94-1.36,1.66-2.68,2.18-3.97-1.05,0-2.06,.02-3,.07-.95,.05-1.67,.09-2.16,.14-.23,.02-.56,.06-.97,.11-.41,.05-.85,.09-1.33,.14-.48,.05-.97,.11-1.48,.18s-.96,.15-1.35,.25l-2.18-3.2c.23,.05,.62,.09,1.14,.12,.53,.04,1.09,.07,1.69,.11,.6,.04,1.19,.06,1.77,.09,.59,.02,1.08,.04,1.48,.04,.94,0,1.91-.02,2.92-.07,1.01-.05,1.97-.11,2.88-.18,.91-.07,1.75-.16,2.5-.26,.75-.11,1.33-.22,1.76-.33l1.48,.84Zm7.48,24.91c.28-.05,.53-.08,.74-.09,.21-.01,.43-.03,.67-.05l-.77,2.99c-.8-.07-1.75-.12-2.85-.14-1.1-.02-2.25-.04-3.46-.05-1.21-.01-2.42,0-3.64,.02-1.22,.02-2.33,.06-3.34,.11-.05,.14-.09,.31-.14,.51-.05,.2-.09,.43-.14,.69l-2.92,.49c-.02-.24-.05-.52-.09-.84-.04-.33-.07-.67-.11-1.02-.04-.35-.07-.7-.11-1.05-.04-.35-.06-.68-.09-.98l-.42-6.43c-.02-.38-.06-.69-.12-.93s-.18-.44-.35-.6c-.17-.15-.43-.29-.75-.42s-.77-.26-1.34-.4l.81-1.58c1.55,.21,3.14,.35,4.78,.42,1.64,.07,3.29,.09,4.94,.07,1.65-.02,3.29-.08,4.9-.18,1.62-.09,3.2-.21,4.74-.35-.07,.59-.15,1.29-.25,2.11-.09,.82-.18,1.68-.26,2.58-.08,.9-.16,1.8-.25,2.71-.08,.9-.15,1.72-.19,2.44Zm-3.44-7.17c-.7-.02-1.46-.04-2.28-.05-.82-.01-1.64,0-2.46,.02-.82,.02-1.62,.05-2.39,.09-.77,.04-1.48,.07-2.11,.09l.14,6.96v.6c1.38-.02,2.86-.07,4.44-.12,1.58-.06,3.1-.11,4.55-.16l.1-7.41Zm-3.2-22.56c.54,.07,1.17,.16,1.9,.28,.73,.12,1.46,.25,2.21,.39,.75,.14,1.47,.27,2.16,.39,.69,.12,1.27,.21,1.74,.28-.07,.21-.13,.49-.18,.84-.05,.35-.09,.7-.14,1.05-.05,.35-.08,.66-.11,.93-.02,.27-.04,.42-.04,.44v8.57c0,.42-.02,.92-.07,1.49-.05,.57-.1,1.15-.16,1.72s-.12,1.11-.19,1.62-.14,.9-.21,1.18l-3.06,.46c-.05-.23-.08-.54-.11-.93-.02-.39-.05-.8-.09-1.25-.04-.44-.06-.88-.07-1.32-.01-.43-.02-.81-.02-1.14V8.24c0-.68-.35-1.24-1.04-1.67-.69-.43-1.81-.85-3.36-1.25l.81-1.55Z"/>
        <path class="cls-1" d="M112.68,30.27c.84-.05,1.6-.08,2.28-.11,.68-.02,1.24-.05,1.69-.07,.77-.02,1.58-.07,2.42-.14,.84-.07,1.68-.15,2.51-.25,.83-.09,1.63-.18,2.41-.26,.77-.08,1.48-.16,2.11-.23l-.49,3.27c-.47-.02-1.03-.05-1.67-.07-.64-.02-1.35-.04-2.11-.05-.76-.01-1.55-.02-2.35-.04-.81-.01-1.6-.02-2.37-.02-.63,0-1.41,0-2.34,.02-.93,.01-1.92,.04-2.99,.07-1.07,.04-2.16,.07-3.29,.11-1.12,.04-2.19,.07-3.2,.11-1.01,.04-1.92,.08-2.74,.12-.82,.05-1.45,.08-1.9,.11-.89,.05-1.87,.12-2.95,.23-1.08,.11-2.05,.23-2.92,.37l-1.3-3.62c.52,.07,1.07,.14,1.67,.19,.6,.06,1.21,.11,1.84,.16,.63,.05,1.26,.09,1.88,.12,.62,.04,1.2,.06,1.74,.09,.87,.05,2.03,.07,3.48,.05,1.45-.01,2.99-.04,4.6-.09v-7.06c-1.12,.05-2.13,.08-3,.11-.88,.02-1.53,.06-1.95,.11-.28,.02-.67,.06-1.16,.11s-1.01,.09-1.55,.14-1.06,.1-1.56,.16c-.5,.06-.91,.11-1.21,.16l-1.41-3.41c.33,.07,.77,.15,1.32,.25,.55,.09,1.13,.17,1.74,.25,.61,.07,1.19,.13,1.76,.18,.56,.05,1.01,.07,1.34,.07h.67l-.42-6.25c-.02-.3-.07-.58-.14-.84-.07-.26-.19-.49-.35-.68-.16-.2-.4-.36-.7-.49-.3-.13-.7-.22-1.19-.26l.25-1.51c.33,0,.76,.01,1.28,.04,.53,.02,1.09,.05,1.69,.09,.6,.04,1.18,.08,1.76,.14s1.07,.11,1.49,.16c-.07,.21-.12,.46-.16,.75-.04,.29-.05,.6-.05,.91s.01,.63,.04,.95c.02,.32,.05,.59,.07,.83l.28,6.04c.82-.05,1.67-.08,2.55-.11,.88-.02,1.81-.07,2.79-.14l.49-6.46c.07-.68-.05-1.18-.35-1.51-.3-.33-.97-.62-2-.88l.56-1.44c.66,.07,1.55,.15,2.69,.25,1.14,.09,2.34,.27,3.6,.53-.05,.21-.11,.47-.18,.79-.07,.32-.14,.64-.21,.98-.07,.34-.13,.65-.17,.93-.05,.28-.07,.47-.07,.56l-.56,5.9c1.17-.07,2.28-.15,3.34-.25,1.05-.09,1.99-.2,2.81-.32l-.74,3.13c-1.1-.05-2.49-.07-4.16-.07s-3.41,.02-5.22,.07v7.06Zm8.54-20.03c-.61-.02-1.39-.04-2.34-.05-.95-.01-1.97-.01-3.06,0-1.09,.01-2.21,.03-3.36,.05-1.15,.02-2.24,.05-3.27,.09-1.03,.04-1.95,.07-2.76,.11-.81,.04-1.42,.06-1.84,.09-.3,.02-.7,.06-1.19,.11-.49,.05-1.01,.1-1.55,.16-.54,.06-1.06,.12-1.56,.18-.5,.06-.92,.11-1.25,.16l-1.33-3.41c.33,.07,.76,.14,1.3,.21,.54,.07,1.11,.13,1.7,.19,.6,.06,1.18,.11,1.74,.14,.56,.04,1.02,.05,1.37,.05,.82,0,1.97-.02,3.44-.07,1.48-.05,3.08-.12,4.8-.21,1.72-.09,3.46-.21,5.22-.35,1.76-.14,3.33-.3,4.71-.49l-.77,3.06Z"/>
        <path class="cls-4" d="M141.55,20.99c-.33,0-.65,0-.97-.02-.32-.01-.64-.02-.97-.02-1.03,0-2.07,.02-3.13,.07-1.05,.05-2.07,.11-3.06,.18-.05,.19-.09,.36-.12,.53-.04,.16-.09,.33-.16,.49-.47,.05-.94,.12-1.41,.21-.47,.09-.94,.16-1.41,.21-.05-.21-.09-.48-.12-.81-.04-.33-.08-.67-.12-1.02-.05-.35-.08-.71-.11-1.07-.02-.36-.04-.7-.04-1v-7.34c0-.35-.04-.66-.11-.91s-.21-.48-.4-.67-.49-.35-.86-.49c-.37-.14-.87-.28-1.48-.42,.12-.23,.24-.47,.37-.7,.13-.23,.25-.47,.37-.7,.35,.05,.8,.1,1.33,.16,.54,.06,1.11,.13,1.7,.21,.6,.08,1.19,.17,1.77,.26,.58,.09,1.1,.18,1.55,.25-.05,.21-.09,.48-.14,.81-.05,.33-.09,.64-.12,.95-.04,.3-.06,.57-.09,.81-.02,.23-.04,.39-.04,.46v.77c1.15-.05,2.37-.11,3.65-.19s2.57-.18,3.83-.3v-1.65c0-.35-.04-.64-.12-.88-.08-.23-.23-.44-.46-.63-.22-.19-.54-.35-.95-.49-.41-.14-.94-.3-1.6-.49,.12-.26,.22-.51,.3-.75,.08-.25,.18-.5,.3-.76,.49,.05,1.04,.11,1.65,.19,.61,.08,1.22,.16,1.84,.25,.62,.08,1.23,.17,1.83,.26,.6,.09,1.12,.19,1.56,.28-.05,.21-.09,.48-.12,.81-.04,.33-.08,.64-.12,.95-.05,.3-.08,.57-.11,.81-.02,.23-.04,.39-.04,.46v6.71c0,1.24-.08,2.26-.25,3.06-.16,.8-.3,1.48-.42,2.04-.49,.05-.97,.12-1.44,.21-.47,.09-.94,.16-1.41,.21-.02-.14-.05-.32-.09-.54-.04-.22-.08-.46-.12-.72Zm-2.5,7.91l.18-3.34c-.28-.02-.66-.01-1.12,.04-.47,.05-1.04,.11-1.72,.18-.63,.07-1.91,.28-3.83,.63l-1.48-3.09c.89,.19,1.76,.31,2.62,.37,.85,.06,1.48,.09,1.88,.09,1.17,.02,2.43-.02,3.78-.14,1.35-.12,2.88-.27,4.59-.46v.21c.33,.05,.75,.1,1.26,.16,.51,.06,1.07,.1,1.65,.12,.26,0,.63-.01,1.11-.04,.48-.02,1.02-.06,1.63-.12s1.25-.13,1.91-.21c.67-.08,1.32-.17,1.95-.26-.07,.4-.13,.86-.19,1.37-.06,.52-.09,.97-.09,1.37v6.08c0,.42-.02,.89-.05,1.41-.04,.52-.09,1.04-.16,1.56-.07,.53-.14,1.01-.21,1.46-.07,.44-.14,.81-.21,1.09l-2.95,.56c-.05-.26-.09-.57-.14-.93-.05-.36-.09-.74-.12-1.12-.04-.39-.07-.77-.11-1.16-.04-.39-.05-.73-.05-1.04v-8.15c-.38,.02-.73,.04-1.07,.05-.34,.01-.63,.04-.86,.09-.4,.05-.87,.12-1.41,.23-.54,.11-1.18,.26-1.93,.47l-.42-1.09c-.02,.09-.06,.26-.11,.51-.05,.25-.11,.53-.18,.84-.07,.32-.14,.63-.21,.95-.07,.32-.13,.59-.18,.83-.12,.02-.08,.02,.12,0,.2-.02,.43-.06,.69-.11l-.53,2.71c-.73-.02-1.38-.04-1.97-.05-.59-.01-1.12-.02-1.62-.02s-.96,.01-1.39,.04c-.43,.02-.86,.07-1.28,.14,0,.12,0,.28-.02,.49-.01,.21-.02,.41-.02,.6v1.86c0,.4,.04,.63,.12,.68,.08,.06,.16,.09,.23,.09,1.12-.12,2.41-.36,3.85-.72,1.44-.36,3.03-.83,4.76-1.39v1.65c-1.76,.8-3.5,1.45-5.24,1.95s-3.29,.87-4.67,1.11c-.98,.19-1.72,.07-2.21-.35-.49-.42-.74-1-.74-1.72v-2.6c0-.8-.14-1.36-.42-1.7-.28-.34-.83-.64-1.65-.9l.49-1.44c1.52,.19,2.93,.29,4.22,.3s2.46-.03,3.51-.12Zm2.25-14.76c-1.12,0-2.35,.01-3.69,.04-1.34,.02-2.6,.06-3.8,.11v3.88c0,.29-.01,.57-.04,.83,1.2-.02,2.45-.06,3.76-.12,1.31-.06,2.57-.13,3.76-.23v-4.5Zm12.02,2.18c0,.42-.01,.92-.04,1.49-.02,.57-.06,1.15-.11,1.72-.05,.57-.1,1.11-.16,1.62-.06,.5-.12,.9-.19,1.18-.54,.07-1.06,.15-1.56,.23-.5,.08-1.02,.16-1.56,.23-.05-.23-.09-.55-.12-.95-.04-.4-.06-.81-.09-1.25-.02-.43-.05-.86-.07-1.28-.02-.42-.04-.78-.04-1.09V8.27c0-.68-.32-1.24-.97-1.69-.64-.44-1.75-.87-3.32-1.26,.12-.26,.22-.52,.32-.77,.09-.26,.19-.51,.28-.77,.59,.07,1.26,.16,2.02,.28,.76,.12,1.52,.25,2.27,.39,.75,.14,1.46,.27,2.13,.39,.67,.12,1.21,.21,1.63,.28-.05,.21-.09,.49-.14,.84-.05,.35-.09,.7-.14,1.05-.05,.35-.08,.66-.11,.93-.02,.27-.04,.42-.04,.44v4.46c.51-.05,1.08-.1,1.69-.16,.61-.06,1.22-.13,1.83-.21,.61-.08,1.21-.16,1.79-.25,.58-.08,1.11-.16,1.58-.23-.09,.54-.16,1.07-.21,1.6-.05,.53-.12,1.06-.21,1.6-.35-.02-.79-.04-1.32-.05-.53-.01-1.09-.02-1.69-.02h-3.46v1.19Z"/>
        <path class="cls-4" d="M192.32,24.51c-.47-.02-1.02-.05-1.67-.07-.64-.02-1.34-.04-2.09-.05-.75-.01-1.52-.03-2.32-.05-.8-.02-1.58-.04-2.35-.04-.63-.02-1.45-.03-2.44-.02-1,.01-2.07,.03-3.23,.05-1.16,.02-2.35,.05-3.58,.09-1.23,.04-2.4,.07-3.5,.11-1.1,.04-2.09,.08-2.97,.12-.88,.05-1.54,.08-1.98,.11-.42,.02-.88,.06-1.39,.11-.5,.05-1.01,.09-1.53,.14-.52,.05-1.02,.1-1.53,.16s-.95,.11-1.35,.16l-1.41-3.51c1.05,.12,2.25,.23,3.58,.33s2.53,.19,3.58,.27h2.21c.91,0,1.91-.01,3-.04,1.09-.02,2.22-.05,3.41-.07,1.18-.02,2.32-.05,3.41-.09,1.09-.04,2.09-.06,3-.09,.91-.02,1.65-.05,2.21-.07,.77-.02,1.58-.07,2.42-.14,.84-.07,1.68-.15,2.51-.23,.83-.08,1.63-.16,2.41-.25,.77-.08,1.49-.17,2.14-.26l-.56,3.34Zm-4.22,12.33c-1.43-.07-2.99-.12-4.67-.16-1.69-.04-3.36-.05-5.01-.04-1.65,.01-3.23,.04-4.73,.07-1.5,.04-2.76,.09-3.79,.16-.96,.07-1.63-.11-2.02-.54-.39-.43-.58-.92-.58-1.46v-3.62c0-.49-.02-.88-.07-1.18-.05-.29-.17-.54-.37-.74s-.51-.37-.93-.51c-.42-.14-1-.3-1.72-.49l.67-1.55c.35,.05,.83,.11,1.42,.18,.6,.07,1.22,.15,1.86,.25,.64,.09,1.27,.18,1.88,.26s1.09,.15,1.44,.19c-.02,.14-.05,.33-.07,.56-.02,.23-.05,.49-.07,.76-.02,.27-.04,.54-.05,.81-.01,.27-.02,.51-.02,.72v3.23c0,.4,.04,.63,.11,.7s.28,.12,.63,.14c.59,0,1.31,0,2.16-.02,.85-.01,1.79-.04,2.81-.07,1.02-.04,2.07-.08,3.16-.12,1.09-.05,2.15-.11,3.18-.19,1.03-.08,2.01-.16,2.93-.25,.92-.08,1.72-.18,2.37-.3l-.53,3.2Zm-9.8-30.36c1.01,.16,1.93,.44,2.78,.83,.84,.39,1.56,.86,2.16,1.41,.6,.55,1.06,1.17,1.39,1.86,.33,.69,.49,1.42,.49,2.2,0,.91-.22,1.77-.67,2.57-.45,.8-1.07,1.49-1.86,2.07-.8,.59-1.74,1.04-2.83,1.37-1.09,.33-2.27,.49-3.53,.49s-2.42-.16-3.48-.49c-1.05-.33-1.97-.79-2.74-1.37-.77-.59-1.38-1.28-1.81-2.07-.43-.8-.65-1.65-.65-2.57,0-.8,.18-1.55,.53-2.25,.35-.7,.85-1.34,1.49-1.9,.64-.56,1.41-1.03,2.28-1.41,.88-.38,1.84-.62,2.9-.74-.05-.33-.17-.59-.37-.77-.2-.19-.57-.37-1.11-.56l.67-1.23c.26,.05,.6,.11,1.02,.19,.42,.08,.86,.17,1.32,.26,.46,.09,.91,.18,1.35,.26,.44,.08,.82,.15,1.12,.19-.05,.19-.12,.43-.21,.72-.09,.29-.17,.6-.25,.93Zm2.71,6.15c0-.59-.13-1.15-.39-1.69-.26-.54-.6-1.01-1.02-1.41-.42-.4-.91-.71-1.48-.95-.56-.23-1.15-.35-1.76-.35s-1.22,.12-1.77,.35c-.55,.23-1.04,.55-1.46,.95-.42,.4-.76,.87-1,1.41-.25,.54-.37,1.1-.37,1.69,0,.66,.12,1.25,.37,1.79,.25,.54,.57,1,.98,1.37,.41,.37,.9,.67,1.46,.88,.56,.21,1.16,.32,1.79,.32s1.23-.11,1.79-.32c.56-.21,1.05-.5,1.48-.88,.42-.38,.75-.83,1-1.37,.25-.54,.37-1.14,.37-1.79Z"/>
        <path class="cls-2" d="M204.71,9.5c.98,.16,1.87,.45,2.67,.86,.8,.41,1.48,.9,2.04,1.48,.56,.57,1,1.22,1.3,1.95,.3,.73,.46,1.49,.46,2.28,0,.96-.21,1.85-.63,2.67-.42,.82-1.01,1.53-1.76,2.14s-1.64,1.09-2.67,1.44c-1.03,.35-2.16,.53-3.37,.53s-2.34-.18-3.37-.53c-1.03-.35-1.92-.83-2.65-1.44-.74-.61-1.31-1.32-1.72-2.14-.41-.82-.61-1.71-.61-2.67,0-.84,.16-1.64,.49-2.39s.8-1.42,1.41-2.02c.61-.6,1.34-1.09,2.2-1.48,.86-.39,1.81-.64,2.86-.76-.02-.33-.14-.58-.33-.75-.2-.18-.56-.35-1.07-.51l.74-1.26c.23,.05,.55,.12,.95,.21,.4,.09,.81,.19,1.25,.28,.43,.09,.86,.19,1.28,.28,.42,.09,.77,.18,1.05,.25-.05,.14-.12,.35-.23,.63-.11,.28-.19,.6-.26,.95Zm2.39,6.39c0-.66-.12-1.26-.35-1.81-.23-.55-.56-1.03-.97-1.44-.41-.41-.87-.73-1.39-.97-.52-.23-1.05-.35-1.62-.35s-1.11,.12-1.63,.35c-.53,.23-.98,.56-1.37,.97-.39,.41-.7,.89-.93,1.44-.23,.55-.35,1.15-.35,1.81,0,.7,.12,1.34,.35,1.9,.23,.56,.54,1.04,.93,1.44,.39,.4,.84,.71,1.37,.93,.53,.22,1.07,.33,1.63,.33s1.11-.11,1.63-.33c.53-.22,.99-.53,1.39-.93,.4-.4,.71-.88,.95-1.44,.23-.56,.35-1.19,.35-1.9Zm14.51,20.66c-1.43-.02-2.89-.04-4.39-.04s-2.96,.01-4.39,.04c-1.43,.02-2.79,.06-4.09,.11-1.3,.05-2.46,.11-3.5,.18-.91,.07-1.58-.11-2-.54-.42-.43-.63-.91-.63-1.45v-4.35c0-.49-.02-.88-.07-1.17-.05-.29-.17-.54-.37-.75-.2-.21-.5-.38-.91-.53-.41-.15-.98-.31-1.7-.5l.7-1.58c.33,.05,.79,.1,1.37,.17,.58,.07,1.2,.15,1.84,.25,.64,.09,1.27,.18,1.88,.26s1.09,.16,1.44,.23c-.02,.14-.05,.33-.07,.56-.02,.23-.05,.49-.07,.75-.02,.27-.05,.53-.07,.79-.02,.26-.04,.49-.04,.7v4.04c0,.4,.05,.63,.14,.7,.09,.07,.34,.12,.74,.14,.87,.02,1.94,0,3.21-.07s2.6-.16,3.97-.26c1.37-.11,2.72-.23,4.06-.37,1.33-.14,2.49-.28,3.48-.42l-.53,3.09Zm-2.14-13.91c0,.54-.01,1.12-.04,1.74-.02,.62-.06,1.25-.11,1.88-.05,.63-.1,1.23-.16,1.79-.06,.56-.12,1.04-.19,1.44l-3.16,.49c-.05-.28-.09-.68-.12-1.19-.04-.51-.06-1.07-.09-1.67-.02-.6-.05-1.19-.07-1.79-.02-.6-.04-1.11-.04-1.53V8.24c0-.68-.32-1.24-.97-1.67-.64-.43-1.74-.85-3.29-1.25l.6-1.55c.59,.07,1.26,.16,2.02,.28,.76,.12,1.51,.25,2.25,.39,.74,.14,1.44,.27,2.11,.39,.67,.12,1.21,.21,1.63,.28-.05,.21-.09,.49-.14,.84-.05,.35-.09,.7-.12,1.05-.04,.35-.06,.66-.09,.93-.02,.27-.04,.42-.04,.44v7.03c.49-.05,1.04-.1,1.65-.16s1.22-.12,1.84-.19c.62-.07,1.22-.15,1.81-.23,.58-.08,1.11-.17,1.58-.26l-.46,3.2c-.35-.02-.79-.04-1.32-.05-.53-.01-1.08-.02-1.67-.02h-3.44v4.96Z"/>
        <path class="cls-2" d="M239.32,26.23c1.92-.19,3.78-.4,5.59-.65,1.8-.25,3.5-.56,5.09-.93V8.24c0-.68-.33-1.24-.98-1.67-.66-.43-1.76-.85-3.3-1.25l.7-1.55c.59,.07,1.25,.16,1.99,.28,.74,.12,1.48,.25,2.23,.39,.75,.14,1.46,.27,2.13,.39,.67,.12,1.22,.21,1.67,.28-.07,.21-.13,.49-.18,.84-.05,.35-.09,.7-.14,1.05-.05,.35-.08,.66-.11,.93-.02,.27-.04,.42-.04,.44v10.61c.51-.05,1.08-.1,1.7-.16,.62-.06,1.24-.12,1.84-.19,.61-.07,1.2-.14,1.77-.21,.57-.07,1.08-.15,1.53-.25l-.35,3.3c-.35-.02-.79-.04-1.3-.05-.52-.01-1.07-.02-1.67-.02h-3.53v6.25c0,.73-.02,1.56-.05,2.51-.04,.95-.08,1.9-.14,2.86-.06,.96-.12,1.87-.18,2.74-.06,.87-.12,1.56-.19,2.07l-3.09,.42c-.05-.38-.09-.88-.12-1.53-.04-.64-.07-1.34-.11-2.09-.04-.75-.06-1.51-.07-2.28-.01-.77-.02-1.5-.02-2.18v-3.69c-1.33,.28-2.69,.55-4.08,.81-1.38,.26-2.74,.5-4.08,.72-1.33,.22-2.62,.42-3.85,.58s-2.35,.29-3.36,.39c-.26,.02-.63,.06-1.11,.11-.48,.05-1,.1-1.55,.16-.55,.06-1.1,.12-1.65,.19-.55,.07-1.03,.14-1.42,.21l-1.97-3.44c.35,.05,.81,.1,1.39,.16,.57,.06,1.16,.11,1.76,.14,.6,.04,1.16,.07,1.69,.09,.53,.02,.92,.02,1.18,0,.42-.02,.83-.05,1.21-.07,.39-.02,.78-.02,1.18,0v-6.36c0-.35-.02-.64-.07-.88-.05-.23-.16-.44-.33-.61-.18-.18-.45-.33-.81-.46-.36-.13-.87-.26-1.53-.4l.63-1.62c.4,.05,.87,.1,1.42,.16,.55,.06,1.12,.12,1.72,.19,.6,.07,1.18,.15,1.76,.23,.57,.08,1.08,.17,1.53,.26-.05,.21-.09,.47-.12,.77-.04,.3-.07,.61-.11,.91-.04,.3-.06,.59-.09,.84-.02,.26-.04,.42-.04,.49v6.15Zm2.25-3.02c.21-.96,.41-1.99,.6-3.07,.19-1.09,.35-2.17,.49-3.25,.14-1.08,.25-2.11,.33-3.09,.08-.98,.12-1.85,.12-2.6h-1.9c-.59,0-1.17,0-1.76,.02-.58,.01-1.18,.04-1.77,.07-.6,.04-1.25,.09-1.95,.16-.68,.07-1.51,.16-2.5,.28s-1.9,.26-2.74,.42l-1.83-3.27c.47,.07,.97,.13,1.51,.19,.54,.06,1.08,.11,1.63,.16,.55,.05,1.07,.08,1.56,.11,.49,.02,.92,.04,1.3,.04,1.8,0,3.75-.07,5.83-.21,2.08-.14,4.15-.4,6.18-.77l1.12,1.09c-.16,.98-.34,2.03-.53,3.14-.19,1.11-.41,2.25-.67,3.41-.26,1.16-.55,2.32-.88,3.48-.33,1.16-.71,2.27-1.16,3.32l-3.02,.39Z"/>
        <path class="cls-2" d="M285.24,26.47c-1.38,.28-2.83,.56-4.36,.84-1.52,.28-3.02,.54-4.5,.77-1.48,.23-2.89,.43-4.23,.6-1.35,.16-2.56,.28-3.64,.35-.21,.02-.54,.06-1,.11-.46,.05-.96,.1-1.51,.16-.55,.06-1.1,.12-1.65,.19-.55,.07-1.03,.14-1.42,.21l-2.07-3.48c.37,.05,.85,.1,1.42,.16,.57,.06,1.16,.11,1.76,.14,.6,.04,1.16,.06,1.7,.07,.54,.01,.95,.02,1.23,.02,1.59-.07,3.2-.16,4.81-.28,1.62-.12,3.21-.26,4.78-.44,1.57-.18,3.09-.38,4.55-.6,1.46-.22,2.84-.47,4.13-.76V8.24c0-.68-.34-1.24-1.02-1.67-.68-.43-1.8-.85-3.37-1.25l.77-1.55c.56,.07,1.21,.16,1.93,.28,.73,.12,1.46,.25,2.2,.39,.74,.14,1.45,.27,2.13,.39,.68,.12,1.25,.21,1.72,.28-.05,.21-.09,.49-.14,.84-.05,.35-.09,.7-.12,1.05-.04,.35-.06,.66-.09,.93-.02,.27-.04,.42-.04,.44V27.67c0,.73-.02,1.56-.05,2.51-.04,.95-.09,1.9-.16,2.86-.07,.96-.15,1.87-.23,2.74-.08,.87-.17,1.56-.26,2.07l-2.92,.42c-.05-.38-.09-.88-.12-1.53s-.07-1.34-.11-2.09c-.04-.75-.07-1.51-.09-2.28-.02-.77-.04-1.5-.04-2.18v-3.72Zm-10.19-17.64c.96,.19,1.84,.49,2.65,.9,.81,.41,1.5,.91,2.09,1.49,.58,.59,1.04,1.25,1.37,1.99s.49,1.51,.49,2.3c0,.94-.22,1.82-.65,2.63-.43,.82-1.04,1.53-1.81,2.14-.77,.61-1.69,1.09-2.74,1.44-1.05,.35-2.2,.53-3.44,.53s-2.31-.18-3.34-.53c-1.03-.35-1.92-.83-2.67-1.44-.75-.61-1.33-1.32-1.76-2.14-.42-.82-.63-1.7-.63-2.63,0-.84,.17-1.65,.51-2.42,.34-.77,.83-1.46,1.46-2.06,.63-.6,1.38-1.09,2.25-1.49,.87-.4,1.83-.66,2.88-.77-.07-.33-.2-.57-.39-.74-.19-.16-.55-.34-1.09-.53l.7-1.3c.23,.05,.56,.11,.97,.19,.41,.08,.84,.17,1.3,.26,.46,.09,.9,.18,1.34,.26s.79,.15,1.07,.19c-.07,.23-.16,.5-.28,.79-.12,.29-.21,.6-.28,.93Zm2.39,6.54c0-.66-.12-1.27-.35-1.84-.24-.57-.55-1.07-.95-1.49-.4-.42-.86-.75-1.39-.98-.53-.23-1.08-.35-1.67-.35s-1.11,.12-1.63,.35c-.53,.23-1,.56-1.41,.98-.41,.42-.73,.92-.97,1.49s-.35,1.19-.35,1.84,.12,1.29,.35,1.84c.23,.55,.56,1.02,.97,1.42,.41,.4,.88,.71,1.41,.93,.53,.22,1.07,.33,1.63,.33s1.15-.11,1.69-.33c.54-.22,1-.53,1.39-.93s.7-.87,.93-1.42c.23-.55,.35-1.16,.35-1.84Z"/>
        <path class="cls-2" d="M307.73,22.89c0,.89-.06,1.74-.18,2.55-.12,.81-.25,1.49-.39,2.06l-2.99,.46c-.02-.23-.06-.54-.11-.93-.05-.39-.09-.8-.14-1.23-.05-.43-.09-.86-.12-1.28-.04-.42-.05-.8-.05-1.12v-.91c-.47,.05-.9,.08-1.3,.11-.4,.02-.83,.06-1.3,.1-.26,.02-.62,.06-1.09,.11-.47,.05-.98,.1-1.53,.16-.55,.06-1.1,.12-1.65,.18-.55,.06-1.02,.12-1.42,.19l-1.97-3.48c.35,.07,.8,.13,1.34,.19,.54,.06,1.09,.11,1.67,.16s1.14,.08,1.69,.11c.55,.02,1.02,.04,1.42,.04,3.4-.02,6.54-.21,9.42-.54,2.88-.34,5.68-.74,8.4-1.21v1.79c-1.69,.38-3.33,.7-4.94,.98-1.6,.28-3.19,.53-4.76,.74v.81Zm-.28-15.71c.84,.16,1.62,.43,2.34,.79,.71,.36,1.33,.79,1.84,1.28,.52,.49,.92,1.05,1.21,1.67,.29,.62,.44,1.28,.44,1.99,0,.84-.19,1.63-.58,2.35-.39,.73-.93,1.36-1.63,1.9-.7,.54-1.54,.96-2.5,1.26-.96,.3-2.01,.46-3.16,.46s-2.16-.15-3.11-.46c-.95-.3-1.77-.73-2.46-1.26-.69-.54-1.24-1.17-1.63-1.9-.4-.73-.6-1.51-.6-2.35,0-.73,.16-1.42,.47-2.07,.32-.66,.77-1.24,1.35-1.76,.58-.51,1.27-.94,2.05-1.28,.79-.34,1.66-.57,2.62-.68-.05-.26-.16-.46-.33-.62-.18-.15-.49-.31-.93-.47l.6-1.16c.23,.05,.55,.11,.95,.18,.4,.07,.81,.15,1.25,.25,.43,.09,.85,.18,1.25,.25,.4,.07,.73,.13,.98,.17-.16,.35-.27,.64-.32,.86-.05,.22-.08,.43-.11,.62Zm16.27,29.65c-1.41-.07-2.9-.12-4.5-.16-1.59-.04-3.16-.05-4.71-.04s-3.02,.04-4.41,.07c-1.39,.04-2.61,.09-3.64,.16-.98,.07-1.67-.11-2.05-.54-.39-.43-.58-.92-.58-1.46v-2.56c0-.49-.02-.89-.07-1.19-.05-.3-.17-.56-.37-.76-.2-.2-.5-.37-.91-.51-.41-.14-.98-.29-1.7-.46l.6-1.58c.35,.05,.83,.11,1.44,.18,.61,.07,1.24,.15,1.9,.25,.66,.09,1.28,.19,1.88,.28,.6,.09,1.07,.16,1.42,.21-.05,.28-.1,.71-.16,1.3-.06,.59-.09,1.1-.09,1.55v2.18c0,.4,.04,.63,.12,.7,.08,.07,.3,.12,.65,.14,.87,.02,1.99,.02,3.36-.02,1.37-.04,2.8-.1,4.3-.19,1.5-.09,2.97-.2,4.41-.32s2.65-.26,3.64-.42l-.53,3.2Zm-14.33-24.03c0-.54-.1-1.04-.3-1.51-.2-.47-.47-.88-.83-1.23-.35-.35-.76-.63-1.23-.83-.47-.2-.96-.3-1.48-.3-.47,0-.93,.1-1.39,.3-.46,.2-.86,.47-1.21,.83-.35,.35-.64,.76-.86,1.23-.22,.47-.33,.97-.33,1.51,0,.59,.11,1.12,.32,1.6,.21,.48,.49,.88,.84,1.21,.35,.33,.75,.59,1.21,.77s.93,.28,1.42,.28c1.08,0,1.99-.35,2.72-1.04,.74-.69,1.11-1.63,1.11-2.83Zm8.78,13.07c-.68,.02-1.38,.06-2.09,.11-.71,.05-1.41,.1-2.09,.17-.68,.07-1.31,.15-1.9,.25-.59,.09-1.08,.19-1.48,.28l-1.48-3.13c.28,.02,.64,.06,1.07,.11s.89,.09,1.37,.14c.48,.05,.96,.08,1.42,.11,.47,.02,.88,.04,1.23,.04,.49-.02,1.08-.05,1.77-.07,.69-.02,1.41-.06,2.16-.11V8.24c0-.68-.34-1.24-1.02-1.67-.68-.43-1.8-.85-3.37-1.25l.74-1.55c.56,.07,1.21,.16,1.95,.28,.74,.12,1.48,.25,2.21,.39,.74,.14,1.45,.27,2.13,.39,.68,.12,1.24,.21,1.69,.28-.05,.21-.09,.49-.12,.84-.04,.35-.07,.7-.11,1.06-.04,.35-.06,.66-.09,.93-.02,.27-.04,.42-.04,.44v14.61c0,.42-.02,.97-.07,1.64-.05,.67-.1,1.36-.16,2.06-.06,.7-.12,1.37-.19,1.99-.07,.62-.13,1.1-.18,1.42l-3.16,.46c0-.21-.01-.5-.03-.88-.02-.37-.04-.78-.05-1.21-.01-.43-.03-.88-.05-1.33-.02-.46-.05-.87-.07-1.25Z"/>
      </g>
      <g>
        <path class="cls-3" d="M125.01,47.1c.38,0,.76,.05,1.13,.16,.37,.11,.73,.29,1.06,.56l-.61,.87c-.24-.21-.49-.35-.77-.44-.27-.08-.54-.12-.81-.12-.25,0-.48,.03-.68,.08-.21,.06-.39,.16-.54,.3-.15,.15-.27,.35-.36,.61-.09,.26-.13,.59-.13,1v.66c0,.35,.04,.65,.13,.89,.09,.24,.21,.44,.37,.59,.16,.15,.34,.26,.56,.33,.22,.07,.46,.1,.72,.1,.21,0,.39-.01,.56-.04,.17-.03,.33-.08,.49-.14v-1.54h-1.34v-.95h2.47v3.12c-.14,.09-.3,.18-.48,.25-.18,.07-.37,.14-.56,.18-.2,.05-.4,.08-.6,.11-.2,.03-.4,.04-.59,.04-.41,0-.79-.05-1.13-.15-.35-.1-.65-.26-.91-.48-.26-.22-.46-.5-.61-.84-.14-.34-.22-.75-.22-1.23v-1.15c0-.48,.07-.89,.21-1.24,.14-.35,.34-.63,.59-.86,.25-.23,.55-.4,.9-.5,.35-.11,.73-.16,1.14-.16Z"/>
        <path class="cls-3" d="M129.92,47.2h1.14v6.42h-1.14v-6.42Z"/>
        <path class="cls-3" d="M135.32,49.17c-.05-.11-.1-.25-.14-.4-.05-.15-.11-.34-.19-.57v5.42h-1.06v-6.42h1.62l1.57,3.99,1.51-3.99h1.64v6.42h-1.08v-5.42c-.07,.27-.12,.47-.17,.6-.05,.13-.09,.26-.13,.37l-1.34,3.38h-.91l-1.33-3.38Z"/>
        <path class="cls-3" d="M143.14,47.2h2.42c.39,0,.72,.05,.99,.14,.28,.09,.5,.22,.68,.38,.18,.16,.31,.36,.4,.58,.09,.23,.13,.47,.13,.73v.19c0,.26-.04,.51-.13,.74-.09,.23-.23,.44-.41,.61-.18,.17-.41,.31-.69,.42-.27,.1-.6,.16-.97,.16h-1.28v2.46h-1.14v-6.42Zm1.14,.95v2.04h1.13c.37,0,.67-.07,.88-.21,.21-.14,.32-.4,.32-.77v-.16c0-.18-.03-.32-.08-.44-.05-.11-.13-.2-.23-.27-.1-.07-.22-.12-.35-.14-.14-.03-.29-.04-.45-.04h-1.23Z"/>
        <path class="cls-3" d="M152.71,47.1c.36,0,.71,.05,1.04,.16s.62,.27,.87,.49c.25,.22,.45,.51,.59,.86,.14,.35,.22,.77,.22,1.27v1.06c0,.5-.07,.93-.22,1.29-.15,.35-.34,.64-.59,.86-.25,.22-.53,.38-.86,.48s-.68,.15-1.05,.15-.72-.05-1.04-.15-.62-.26-.86-.48c-.25-.22-.44-.51-.59-.86-.14-.35-.22-.78-.22-1.29v-1.06c0-.5,.07-.92,.22-1.27,.15-.35,.34-.64,.59-.86,.25-.22,.54-.39,.87-.49s.67-.16,1.04-.16Zm0,5.57c.22,0,.42-.03,.61-.09,.19-.06,.36-.16,.5-.3,.14-.14,.25-.33,.33-.58,.08-.24,.12-.55,.12-.92v-.77c0-.37-.04-.67-.12-.92s-.19-.44-.33-.58-.31-.24-.5-.3c-.19-.06-.39-.08-.61-.08s-.41,.03-.6,.08c-.19,.06-.36,.16-.5,.3-.14,.14-.26,.33-.34,.58s-.12,.55-.12,.92v.77c0,.37,.04,.67,.12,.92,.08,.24,.2,.44,.34,.58,.14,.14,.31,.24,.5,.3,.19,.06,.39,.09,.6,.09Z"/>
        <path class="cls-3" d="M161.7,47.2h2.49c1.35,0,2.02,.52,2.02,1.57v.19c0,.14-.02,.28-.05,.41-.03,.13-.09,.26-.17,.37-.08,.12-.19,.22-.32,.3-.13,.09-.29,.15-.48,.2,.39,.06,.71,.21,.95,.44,.24,.23,.36,.57,.36,1.02v.22c0,.53-.17,.94-.5,1.24-.33,.3-.85,.45-1.54,.45h-2.77v-6.42Zm1.13,.94v1.67h.84c.22,0,.42,0,.59-.02,.17-.01,.32-.04,.44-.1,.12-.05,.21-.13,.27-.24,.06-.11,.09-.27,.09-.47v-.16c0-.27-.1-.45-.32-.55-.21-.09-.56-.14-1.04-.14h-.87Zm0,4.53h1.03c.25,0,.47-.01,.65-.03,.19-.02,.34-.06,.46-.12,.12-.06,.21-.15,.27-.26,.06-.11,.09-.26,.09-.45v-.2c0-.17-.03-.3-.08-.41-.06-.11-.15-.2-.28-.27-.13-.07-.3-.12-.51-.14-.21-.03-.47-.04-.77-.04h-.86v1.93Z"/>
        <path class="cls-3" d="M171.46,51.05h-1.31v2.57h-1.14v-6.42h2.43c.33,0,.63,.04,.88,.13,.26,.09,.47,.21,.65,.36,.17,.15,.31,.34,.4,.56,.09,.22,.14,.45,.14,.71v.33c0,.34-.08,.64-.25,.91-.17,.27-.41,.48-.75,.63,.21,.47,.42,.93,.63,1.39,.2,.46,.41,.92,.63,1.39h-1.24l-1.08-2.57Zm-1.31-2.89v1.94h1.05c.44,0,.75-.08,.92-.23,.17-.15,.26-.35,.26-.6v-.27c0-.25-.08-.45-.25-.61-.17-.16-.45-.24-.84-.24h-1.15Z"/>
        <path class="cls-3" d="M176.3,47.2h1.14v6.42h-1.14v-6.42Z"/>
        <path class="cls-3" d="M182.93,47.1c.38,0,.76,.05,1.13,.16,.37,.11,.73,.29,1.06,.56l-.61,.87c-.24-.21-.49-.35-.77-.44-.27-.08-.54-.12-.81-.12-.25,0-.48,.03-.68,.08-.21,.06-.39,.16-.54,.3-.15,.15-.27,.35-.36,.61-.09,.26-.13,.59-.13,1v.66c0,.35,.04,.65,.13,.89s.21,.44,.37,.59c.16,.15,.34,.26,.56,.33,.22,.07,.45,.1,.72,.1,.21,0,.39-.01,.56-.04,.17-.03,.33-.08,.49-.14v-1.54h-1.34v-.95h2.47v3.12c-.14,.09-.3,.18-.48,.25-.18,.07-.37,.14-.56,.18-.2,.05-.4,.08-.6,.11-.2,.03-.4,.04-.59,.04-.41,0-.79-.05-1.13-.15-.35-.1-.65-.26-.91-.48-.26-.22-.46-.5-.61-.84-.14-.34-.22-.75-.22-1.23v-1.15c0-.48,.07-.89,.21-1.24,.14-.35,.34-.63,.59-.86,.25-.23,.55-.4,.9-.5,.35-.11,.73-.16,1.14-.16Z"/>
        <path class="cls-3" d="M191.64,50.74h-2.66v2.87h-1.14v-6.42h1.14v2.6h2.66v-2.6h1.14v6.42h-1.14v-2.87Z"/>
        <path class="cls-3" d="M199.91,47.2v.96h-1.88v5.45h-1.14v-5.45h-1.89v-.96h4.9Z"/>
        <path class="cls-3" d="M209.92,47.2v.94h-3v1.73h2.81v.92h-2.81v1.88h3.06v.94h-4.19v-6.42h4.13Z"/>
        <path class="cls-3" d="M215.36,51.08v2.54h-1.14v-2.54l-2.2-3.88h1.27l1.52,2.83,1.5-2.83h1.25l-2.2,3.88Z"/>
        <path class="cls-3" d="M223.95,47.2v.94h-3v1.73h2.81v.92h-2.81v1.88h3.06v.94h-4.19v-6.42h4.13Z"/>
        <path class="cls-3" d="M232.75,47.1c.45,0,.85,.05,1.2,.16,.35,.11,.68,.29,1.01,.55l-.61,.87c-.26-.22-.52-.36-.77-.43s-.53-.1-.82-.1c-.19,0-.38,.03-.56,.08-.18,.06-.35,.16-.49,.31-.14,.15-.26,.35-.35,.6-.09,.26-.13,.58-.13,.98v.66c0,.34,.04,.63,.12,.86s.19,.43,.33,.58c.14,.15,.3,.26,.49,.33,.18,.07,.38,.1,.58,.1,.3,0,.6-.05,.91-.14,.31-.09,.59-.27,.85-.53l.61,.87c-.19,.19-.39,.34-.6,.45-.21,.11-.42,.2-.63,.26-.21,.06-.41,.1-.61,.12-.2,.02-.39,.03-.57,.03-.35,0-.68-.05-1-.15s-.6-.26-.84-.48c-.24-.22-.43-.5-.57-.84-.14-.34-.21-.75-.21-1.23v-1.15c0-.48,.07-.89,.21-1.24,.14-.35,.33-.63,.57-.86,.24-.23,.53-.4,.85-.5,.32-.11,.67-.16,1.05-.16Z"/>
        <path class="cls-3" d="M238.72,47.2v5.46h2.93v.96h-4.07v-6.42h1.14Z"/>
        <path class="cls-3" d="M243.97,47.2h1.14v6.42h-1.14v-6.42Z"/>
        <path class="cls-3" d="M247.98,47.2h1.31l2.19,3.89c.07,.12,.14,.27,.22,.44s.14,.37,.19,.57v-4.9h1.07v6.42h-1.31l-2.2-3.9c-.08-.14-.16-.3-.23-.46s-.13-.34-.17-.53v4.89h-1.07v-6.42Z"/>
        <path class="cls-3" d="M255.82,47.2h1.14v6.42h-1.14v-6.42Z"/>
        <path class="cls-3" d="M262.27,47.1c.45,0,.85,.05,1.2,.16,.35,.11,.68,.29,1.01,.55l-.61,.87c-.26-.22-.52-.36-.77-.43-.25-.07-.53-.1-.82-.1-.19,0-.38,.03-.56,.08-.18,.06-.35,.16-.49,.31-.14,.15-.26,.35-.35,.6-.09,.26-.13,.58-.13,.98v.66c0,.34,.04,.63,.12,.86,.08,.24,.19,.43,.33,.58,.14,.15,.3,.26,.49,.33,.18,.07,.38,.1,.58,.1,.3,0,.6-.05,.91-.14,.31-.09,.59-.27,.85-.53l.61,.87c-.19,.19-.39,.34-.6,.45-.21,.11-.42,.2-.63,.26-.21,.06-.41,.1-.61,.12-.2,.02-.39,.03-.57,.03-.35,0-.68-.05-1-.15s-.6-.26-.84-.48c-.24-.22-.43-.5-.57-.84-.14-.34-.21-.75-.21-1.23v-1.15c0-.48,.07-.89,.21-1.24,.14-.35,.33-.63,.57-.86,.24-.23,.53-.4,.85-.5,.32-.11,.67-.16,1.05-.16Z"/>
      </g>
    </g>
  </g>
</svg>